<svg id="SvgjsSvg1006" width="5000px" height="5000px" xmlns="http://www.w3.org/2000/svg" version="1.1" xmlns:xlink="http://www.w3.org/1999/xlink" xmlns:svgjs="http://svgjs.com/svgjs" viewBox="0 0 157 157"><defs id="SvgjsDefs1007"></defs><g id="SvgjsG1009"><svg width="157" height="157" x="0" y="0" xmlns="http://www.w3.org/2000/svg" version="1.1" xmlns:xlink="http://www.w3.org/1999/xlink" xmlns:svgjs="http://svgjs.com/svgjs" preserveAspectRatio="none"><rect width="157" height="157" stroke-width="0" stroke="#0e0e0e" stroke-opacity="1" fill="#b8eab9" fill-opacity="1" x="0" y="0" rx="50%" ry="50%"></rect><defs id="SvgjsDefs1008"></defs></svg></g><g id="SvgjsG1011" transform="rotate(0 87.5 54.265625)"><svg width="100" viewBox="0 0 160.5 105.00001525878906" xmlns="http://www.w3.org/2000/svg" version="1.1" xmlns:xlink="http://www.w3.org/1999/xlink" xmlns:svgjs="http://svgjs.com/svgjs" preserveAspectRatio="none" height="65.40625" x="37.5" y="21.5625"><g><svg viewBox="19.50000762939453 47.39999771118164 160.5 105.00001525878906" height="105.00001525878906" width="160.5" xmlns="http://www.w3.org/2000/svg" data-type="color">
    <g>
        <path d="M97.2 81h.2c2.8 0 5.1-2.3 5.1-5.1v-.2c0-2.8-2.3-5.1-5.1-5.1h-.2c-2.8 0-5.1 2.3-5.1 5.1v.2c0 2.8 2.3 5.1 5.1 5.1zm-3.5-5.3c0-2 1.6-3.5 3.5-3.5h.2c2 0 3.5 1.6 3.5 3.5v.2c0 2-1.6 3.5-3.5 3.5h-.2c-2 0-3.5-1.6-3.5-3.5v-.2z" data-color="1" fill="#e95959"></path>
        <path d="M47.3 71.4L39.8 64c-.3.5-.7 1-1 1.6-1.3 2.2-2.5 4.6-3.3 7.1l9.6 2.9c.6-1.4 1.4-2.8 2.2-4.2z" data-color="2" fill="#ab1008"></path>
        <path d="M44.4 77L35 74.2c-.8 2.7-1.4 5.5-1.6 8.3l9 .5c.5-2 1.2-4 2-6z" data-color="2" fill="#ab1008"></path>
        <path d="M33.8 93.1c.3 1.5.6 3 1.1 4.4 1.9.9 3.9 1.6 5.9 2.2h.1v.1c-.3-2.3-.3-4.6-.2-7 .1 0-6.9.3-6.9.3z" data-color="2" fill="#ab1008"></path>
        <path d="M58.1 100.7c1.1-.2 2.2-.4 3.2-.7 1.4-.4 4-1.6 6.7-3 2.1-1.1 4.3-2.2 6.3-3 2.5-1 4.9-1.6 7.3-1.6l.1-.1c-1-.5-2-1-3-1.4-2.8-1.3-5.5-2.6-6.8-3.5-1.1-.9-2.2-1.8-3.3-2.8-4.8 4-8.5 9.7-10.5 16.1z" data-color="2" fill="#ab1008"></path>
        <path d="M50.4 66.9l-2.7-11.7c-2.6 2.2-5 4.7-7 7.5l7.4 7.4c.8-1.1 1.5-2.2 2.3-3.2z" data-color="2" fill="#ab1008"></path>
        <path d="M42.7 89.3c-.5 3.6-.5 7.3 0 10.9 4.5 1 9.1 1.3 13.7.7 2-6.9 5.9-13.1 11-17.4-5.5-5.6-9.4-12.7-11-20.4C49 69.4 44 78.9 42.7 89.3z" data-color="2" fill="#ab1008"></path>
        <path d="M40.9 91.3c.1-.7.1-1.4.2-2.2.2-1.5.5-3 .8-4.5l-8.7-.5c-.1 2.5 0 5 .3 7.5l7.4-.3z" data-color="2" fill="#ab1008"></path>
        <path d="M56 61.3c-.6-3.7-.8-7.5-.4-11.2-2.3 1.1-4.5 2.5-6.5 4l2.6 11.3c1.3-1.4 2.8-2.8 4.3-4.1z" data-color="2" fill="#ab1008"></path>
        <path d="M98.3 134.2l3.1 4.3c4.4-1.7 8.4-4.2 11.9-7.3l-1.9-2.7c-4 2.6-8.5 4.5-13.1 5.7z" data-color="2" fill="#ab1008"></path>
        <path d="M93.1 135.1c-1.5.2-3 .2-4.5.2-1.1 0-2.2-.1-3.2-.1-.5 0-1 0-1.5-.1-.7.4-1.3.7-2 1-2.4 1.1-4.8 2.1-7.3 2.9 8.3 2.8 17.3 2.7 25.4-.1l-3.2-4.4c-1.4.3-2.6.5-3.7.6z" data-color="2" fill="#ab1008"></path>
        <path d="M112.7 127.5l1.8 2.5 2.1-2.1c2.9-3.3 7.5-10 9.9-17.6-3 6.9-7.8 12.8-13.8 17.2z" data-color="2" fill="#ab1008"></path>
        <path d="M86 77.1l-6.6.5 6.9 2.7c0-.2-.1-.3-.1-.5-.1-.9-.2-1.8-.2-2.7z" data-color="2" fill="#ab1008"></path>
        <path d="M86.4 72.7V72l-7.2 4 6.9-.5c-.1-.9.1-1.9.3-2.8z" data-color="2" fill="#ab1008"></path>
        <path d="M90.3 94.7l.2.1-.2-.1z" data-color="2" fill="#ab1008"></path>
        <path d="M123.6 72.8c-.9-1.8-2.1-3.5-3.4-5.1-3.9-4.4-9-6.8-15.2-7-5.4-.2-10.4 1.8-13.6 5.4-.5.5-.9 1.1-1.3 1.7 2.5-1.4 5.2-2.3 8-2.8 10.4-2 19.2 2.6 25.5 7.8z" data-color="2" fill="#ab1008"></path>
        <path d="M92.9 133.5c11.5-1.2 21.6-7.5 28-16.5-9-.5-16.2-7.8-16.6-16.8-1.3-.2-2.5-.5-3.6-.8-4.2-1.2-7.4-2.8-9.3-4 3.7 2.6 6.5 6.9 7.6 11.8 1.4 6.6.3 12.5-3.2 17.8-2.2 3.2-5.4 6.2-9.4 8.7 2.1.1 4.3 0 6.5-.2z" data-color="2" fill="#ab1008"></path>
        <path d="M105.9 100.4c.5 8.4 7.5 15.1 16 15.1v.1c3.4-5.3 5.5-11.3 6.2-17.6 0-.5.1-1.1.1-1.7-6.5 3.3-12.6 4.4-17.8 4.4-1.5 0-3-.1-4.5-.3z" data-color="2" fill="#ab1008"></path>
        <path d="M98.4 66.5c-4.5.8-7.9 2.8-9.8 4-1 2.7-1.3 5.8-.8 9.1.3 2 .8 4.4 1.3 6.7.5 2.4 1 4.7 1.2 6.3.7.5 4.7 3.5 11 5.2 6.2 1.7 15.9 2.5 27-3.4 0-5-.6-11.9-3.1-18.2-8.7-8.1-17.7-11.4-26.8-9.7zm4.1 9.4c0 2.8-2.3 5.1-5.1 5.1h-.2c-2.8 0-5.1-2.3-5.1-5.1v-.2c0-2.8 2.3-5.1 5.1-5.1h.2c2.8 0 5.1 2.3 5.1 5.1v.2z" data-color="2" fill="#ab1008"></path>
        <path d="M52.9 133.9c-2.2-1.3-4.3-2.9-6.3-4.6l-4.1 5.6c2.3 1.2 4.7 2.2 7.2 3l2.4-4.5.8.5z" data-color="2" fill="#ab1008"></path>
        <path d="M64.5 124.5c-5.2-6.3-8.3-14.2-8.5-21.9-7.8.9-15.7-.6-22.8-4.1.3 9.7 4.6 19.6 11.9 27.1 7.5 7.8 17.5 12.3 27.3 12.4 3-.8 5.8-1.9 8.6-3.2-6.1-1.2-11.9-4.7-16.5-10.3z" data-color="2" fill="#ab1008"></path>
        <path d="M51.2 138.4c3.3.9 6.6 1.3 10 1.3 2 0 4-.2 6-.5h.1c-4.8-.7-9.4-2.4-13.8-5l-2.3 4.2z" data-color="2" fill="#ab1008"></path>
        <path d="M32.5 105.6l-10.9-5.2c0 3.4.5 6.8 1.5 10.2l10.4-1.2c-.4-1.3-.7-2.6-1-3.8z" data-color="2" fill="#ab1008"></path>
        <path d="M34 110.8L23.6 112l.6 1.8c.9 2.4 2.1 4.8 3.5 7l8.2-5.7c-.7-1.3-1.4-2.8-1.9-4.3z" data-color="2" fill="#ab1008"></path>
        <path d="M36.6 116.6l-8.1 5.6c1.6 2.4 3.4 4.5 5.5 6.5l6-6.7c-1.3-1.8-2.4-3.5-3.4-5.4z" data-color="2" fill="#ab1008"></path>
        <path d="M31.6 97.7c-3.3-1.8-6.3-4.1-9-6.7-.6 2.5-.9 5.1-1 7.6l10.5 5c-.3-1.9-.5-3.9-.5-5.9z" data-color="2" fill="#ab1008"></path>
        <path d="M43.9 126.7c-1.1-1.1-2.1-2.3-3-3.5l-5.8 6.5c1.9 1.6 3.9 3.1 6 4.4l4.3-5.9-1.5-1.5z" data-color="2" fill="#ab1008"></path>
        <path d="M74.9 95.5c-.5.2-1.1.5-1.6.7 0 13 10.4 23.6 23.2 23.9 1.6-3.9 1.9-8.1.9-12.6-1.1-5.2-4.3-9.7-8.6-11.9-4.1-2.1-8.9-2.2-13.9-.1z" data-color="2" fill="#ab1008"></path>
        <path d="M95.8 121.7C82.6 121 72.1 110.2 71.7 97l-3 1.5c-2.8 1.4-5.4 2.7-7 3.1-1.4.3-2.8.6-4.2.8.2 7.4 3.1 15.1 8.2 21.1 5 5.9 11.2 9.4 17.7 10 4.2-2.3 8.3-5.4 11-9.5.5-.7 1-1.5 1.4-2.3z" data-color="2" fill="#ab1008"></path>
        <path d="M97.4 72.2h-.2c-2 0-3.5 1.6-3.5 3.5v.2c0 2 1.6 3.5 3.5 3.5h.2c2 0 3.5-1.6 3.5-3.5v-.2c.1-1.9-1.5-3.5-3.5-3.5z" data-color="2" fill="#ab1008"></path>
        <path d="M151.1 113.6c2.7 0 5.3 1.2 7.1 3.3 2.7-1.2 4.5-3.9 4.5-7 0-4.2-3.4-7.6-7.6-7.6s-7.6 3.4-7.6 7.6c0 1.5.4 2.8 1.1 4 .8-.2 1.6-.3 2.5-.3z" data-color="2" fill="#ab1008"></path>
        <path d="M170.8 115c-4.2 0-7.6 3.4-7.6 7.6s3.4 7.6 7.6 7.6 7.6-3.4 7.6-7.6-3.4-7.6-7.6-7.6z" data-color="2" fill="#ab1008"></path>
        <path d="M151.1 115.2c-4.2 0-7.6 3.4-7.6 7.6s3.4 7.6 7.6 7.6c4.2 0 7.6-3.4 7.6-7.6s-3.4-7.6-7.6-7.6z" data-color="2" fill="#ab1008"></path>
        <path d="M168.3 133.9c-4.2 0-7.6 3.4-7.6 7.6 0 4.2 3.4 7.6 7.6 7.6 4.2 0 7.6-3.4 7.6-7.6 0-4.1-3.4-7.6-7.6-7.6z" data-color="2" fill="#ab1008"></path>
        <path d="M168.3 132.4c-5.1 0-9.2 4.1-9.2 9.2v.4l-8.2.4 13.3-13.3c1.7 1.8 4.1 2.8 6.6 2.8 5.1 0 9.2-4.1 9.2-9.2s-4.1-9.2-9.2-9.2c-4.6 0-8.5 3.5-9.1 7.9l-1.9-3.5c2.6-1.6 4.4-4.5 4.4-7.8 0-5.1-4.1-9.2-9.2-9.2s-9.2 4.1-9.2 9.2c0 1.7.4 3.2 1.2 4.6-3.1 1.5-5.2 4.6-5.2 8.3 0 5.1 4.1 9.2 9.2 9.2s9.2-4.1 9.2-9.2c0-.3 0-.7-.1-1l1.8 3.4c.3.9.7 1.8 1.2 2.6l-23 23.1h-11.2l.1-.1-13.8-19.5c.8-.8 1.6-1.6 2.3-2.4 3-3.4 6-8.1 8.1-12.7 2.8-6.2 4.1-12.2 3.7-17.5 0-.2.1-.5.1-.7.4-4.5.1-10.1-.9-15.1-1.3-6.7-3.9-12.4-7.4-16.4-4.2-4.8-9.7-7.3-16.4-7.6-5.8-.2-11.4 2-14.9 5.9-1.2 1.3-2.1 2.8-2.8 4.4l-.9.6-12.6 7 1.6.7v.1h.2l10.9 4.3.9 4.5c.6 2.9 1.2 5.7 1.2 7.2-.9-.4-1.8-.8-2.8-1-.2-.1-.3-.2-.5-.3-1.8-1-4.1-2.1-6.2-3.1-2.7-1.3-5.3-2.5-6.5-3.4C60.9 77.3 55 63.1 56.9 48.8l.2-1.4-1.3.6c-3.2 1.4-6.1 3.2-8.8 5.3h-.1v.1c-3.9 3.1-7.3 7-9.9 11.3-5.9 9.8-7.2 21.3-4.4 31.9-3.8-2-7.3-4.6-10.3-7.8l-1-1-.4 1.4c-.9 3.4-1.3 6.8-1.4 10.3v.1c0 5.1.9 10.1 2.6 14.8 6 16.3 21.6 26.8 38.5 26.8 2.1 0 4.1-.2 6.2-.5 1.5-.2 3-.6 4.5-1 4.8 1.9 9.9 2.9 15.1 2.9 4.7 0 9.4-.8 13.8-2.4l7.7 10.6H75.6v1.6h74.1v-1.6h-7.2l6.8-6.9 10-.5c.9 4.1 4.6 7.3 9 7.3 5.1 0 9.2-4.1 9.2-9.2s-4.1-9.1-9.2-9.1zm-13.2-30.1c4.2 0 7.6 3.4 7.6 7.6 0 3.1-1.9 5.8-4.5 7-1.7-2.1-4.3-3.3-7.1-3.3-.9 0-1.7.1-2.5.4-.7-1.2-1.1-2.6-1.1-4-.1-4.3 3.4-7.7 7.6-7.7zm-4 28.2c-4.2 0-7.6-3.4-7.6-7.6 0-4.2 3.4-7.6 7.6-7.6 4.2 0 7.6 3.4 7.6 7.6 0 4.1-3.4 7.6-7.6 7.6zm12.1-7.9c0-4.2 3.4-7.6 7.6-7.6s7.6 3.4 7.6 7.6-3.4 7.6-7.6 7.6c-4.2 0-7.6-3.4-7.6-7.6zm-83.8-45l6.6-.5c0 .9.1 1.8.2 2.7 0 .1.1.3.1.5l-6.9-2.7zm6.6-2.1l-6.9.5 7.2-4v.7c-.1.9-.3 1.9-.3 2.8zm30.5 52.4c-.7.7-1.3 1.4-2.1 2.1l-1.8-2.5c6-4.4 10.8-10.3 13.8-17.2-2.3 7.6-6.9 14.3-9.9 17.6zM95.7 125c3.6-5.2 4.7-11.2 3.2-17.8-1.1-4.9-3.8-9.2-7.6-11.8 2 1.2 5.2 2.9 9.3 4 1.1.3 2.3.6 3.6.8.4 9 7.6 16.3 16.6 16.8-6.4 9-16.5 15.3-28 16.5-2.2.2-4.4.3-6.6.1 4.1-2.5 7.3-5.4 9.5-8.6zm-12.3 8.5c-6.5-.6-12.7-4.1-17.7-10-5.1-6.1-8-13.7-8.2-21.1 1.4-.2 2.8-.5 4.2-.8 1.6-.4 4.2-1.7 7-3.1l3-1.5c.4 13.3 10.9 24.1 24.1 24.7-.4.8-.9 1.6-1.4 2.4-2.7 4-6.8 7.1-11 9.4zM128 97.9c-.6 6.3-2.7 12.3-6.2 17.6v-.1c-8.5 0-15.4-6.7-16-15.1 1.4.2 2.9.3 4.5.3 5.2 0 11.2-1.1 17.8-4.4 0 .6 0 1.2-.1 1.7zM91.3 66.1c3.2-3.6 8.3-5.6 13.6-5.4 6.2.2 11.4 2.6 15.2 7 1.3 1.5 2.4 3.2 3.4 5.1-6.2-5.2-15-9.8-25.5-7.8-2.8.5-5.5 1.5-8 2.8.4-.6.8-1.2 1.3-1.7zm-3.5 13.5c-.5-3.4-.2-6.4.8-9.1 1.8-1.2 5.3-3.1 9.8-4 9.1-1.7 18.1 1.6 26.7 9.8 2.4 6.3 3.1 13.2 3.1 18.2-11.1 5.9-20.8 5.1-27 3.4-6.2-1.7-10.3-4.7-11-5.2-.2-1.7-.7-3.9-1.2-6.3-.4-2.4-.9-4.7-1.2-6.8zm2.7 15.2c-.1 0-.1-.1-.2-.1.1 0 .1 0 .2.1zm-1.7.8c4.2 2.2 7.4 6.7 8.6 11.9 1 4.5.7 8.7-.9 12.6-12.9-.3-23.2-10.9-23.2-23.9.5-.2 1.1-.5 1.6-.7 5-2.1 9.8-2 13.9.1zm-17-8.2c1.3 1 4 2.2 6.8 3.5 1 .5 2 1 3 1.4l-.1.1c-2.3.1-4.8.6-7.3 1.6-1.9.8-4.1 1.9-6.3 3-2.7 1.4-5.3 2.6-6.7 3-1.1.3-2.1.5-3.2.7 2-6.3 5.7-12 10.5-16.1 1.1 1 2.2 1.9 3.3 2.8zM56.4 63.1c1.7 7.7 5.5 14.8 11 20.4-5.1 4.4-9.1 10.6-11 17.4-4.6.6-9.2.3-13.7-.7-.5-3.6-.5-7.3 0-10.9C44 78.9 49 69.4 56.4 63.1zm-.8-13c-.4 3.7-.2 7.5.4 11.2-1.5 1.3-3 2.6-4.3 4.1l-2.6-11.3c2-1.5 4.2-2.9 6.5-4zm-7.9 5.1l2.7 11.7c-.8 1-1.6 2-2.3 3.1l-7.4-7.4c2-2.7 4.4-5.2 7-7.4zm-8.9 10.4c.3-.5.7-1.1 1-1.6l7.5 7.4c-.8 1.3-1.6 2.7-2.2 4.2l-9.6-2.9c.8-2.5 1.9-4.9 3.3-7.1zM35 74.2l9.4 2.9c-.8 1.9-1.5 3.9-2.1 6l-9-.5c.3-2.9.8-5.7 1.7-8.4zm-1.8 9.9l8.7.5c-.4 1.5-.6 3-.8 4.5-.1.7-.2 1.4-.2 2.2l-7.3.3c-.4-2.5-.5-5-.4-7.5zM41 99.8h-.2c-2-.6-4-1.3-5.9-2.2-.4-1.5-.8-2.9-1.1-4.4l6.9-.3c0 2.3.1 4.6.3 6.9zM22.6 91c2.7 2.6 5.7 4.9 9 6.7 0 2 .2 4 .5 6l-10.5-5c.1-2.6.4-5.2 1-7.7zm9.9 14.6c.3 1.3.6 2.5 1 3.7l-10.4 1.2c-.9-3.3-1.4-6.7-1.5-10.2l10.9 5.3zm-8.9 6.5l10.4-1.2c.5 1.5 1.1 2.9 1.8 4.4l-8.2 5.7c-1.4-2.2-2.5-4.6-3.5-7-.2-.7-.3-1.3-.5-1.9zm4.9 10.1l8.1-5.6c1 1.9 2.1 3.6 3.4 5.4l-6 6.7c-2.1-2-4-4.1-5.5-6.5zm6.6 7.6l5.8-6.5c.9 1.2 2 2.4 3 3.5l1.5 1.5-4.3 5.9c-2.1-1.3-4.1-2.8-6-4.4zm7.4 5.1l4.1-5.6c2 1.7 4.1 3.3 6.3 4.6l-.8-.4-2.4 4.5c-2.5-.8-4.9-1.8-7.2-3.1zm24.7 4.3c-2 .3-4 .5-6 .5-3.4 0-6.8-.5-10-1.3l2.3-4.1c4.3 2.5 9 4.2 13.7 4.9zM45 125.6c-7.3-7.5-11.5-17.4-11.9-27.1 7.1 3.5 15 4.9 22.8 4.1.2 7.7 3.3 15.7 8.5 21.9 4.7 5.6 10.4 9.1 16.5 10.3-2.8 1.3-5.7 2.4-8.6 3.2-9.8-.1-19.7-4.6-27.3-12.4zm29.4 13.5c2.5-.8 4.9-1.8 7.3-2.9.7-.3 1.4-.7 2-1 .5 0 1 .1 1.5.1 1.1.1 2.2.1 3.2.1 1.5 0 3-.1 4.5-.2 1.2-.1 2.4-.3 3.5-.5l3.2 4.4c-7.9 2.7-16.8 2.8-25.2 0zm23.9-4.9c4.7-1.1 9.1-3.1 13.1-5.8l1.9 2.7c-3.5 3.1-7.5 5.6-11.9 7.3l-3.1-4.2zm12.2 16.7l-8.1-11.2c4.4-1.7 8.4-4.2 11.9-7.3l13.1 18.5h-16.9zm57.8-1.7c-4.2 0-7.6-3.4-7.6-7.6 0-4.2 3.4-7.6 7.6-7.6 4.2 0 7.6 3.4 7.6 7.6 0 4.2-3.4 7.6-7.6 7.6z" data-color="1" fill="#e95959"></path>
    </g>
</svg></g><defs id="SvgjsDefs1010"></defs></svg></g><g id="SvgjsG1013" transform="rotate(0 78.5 105.703125)"><svg xmlns="http://www.w3.org/2000/svg" xmlns:xlink="http://www.w3.org/1999/xlink" width="85.09375" viewBox="1.6800000667572021 6.559999942779541 85.0999984741211 23.48000144958496" overflow="visible" style="overflow: visible;" transform="" version="1.1" xmlns:svgjs="http://svgjs.com/svgjs" preserveAspectRatio="none" height="23.46875" x="35.953125" y="93.96875" fill="#000000" stroke="none"><path stroke="none" fill="#0e0e0e" d="M1.68 18.08L1.68 18.08L1.68 18.08Q1.68 15.66 2.59 13.56L2.59 13.56L2.59 13.56Q3.50 11.46 5.24 9.90L5.24 9.90L5.24 9.90Q6.99 8.35 9.53 7.46L9.53 7.46L9.53 7.46Q12.07 6.56 15.35 6.56L15.35 6.56L15.35 6.56Q16.54 6.56 17.73 6.69L17.73 6.69L17.73 6.69Q18.93 6.81 20.09 7.08L20.09 7.08L20.09 7.08Q21.25 7.34 22.36 7.74L22.36 7.74L22.36 7.74Q23.47 8.14 24.46 8.70L24.46 8.70L22.32 12.22L22.32 12.22Q21.72 11.87 20.96 11.58L20.96 11.58L20.96 11.58Q20.20 11.29 19.33 11.10L19.33 11.10L19.33 11.10Q18.46 10.90 17.53 10.80L17.53 10.80L17.53 10.80Q16.60 10.69 15.66 10.69L15.66 10.69L15.66 10.69Q13.49 10.69 11.79 11.24L11.79 11.24L11.79 11.24Q10.09 11.79 8.92 12.78L8.92 12.78L8.92 12.78Q7.75 13.77 7.13 15.15L7.13 15.15L7.13 15.15Q6.52 16.52 6.52 18.16L6.52 18.16L6.52 18.16Q6.52 19.86 7.16 21.28L7.16 21.28L7.16 21.28Q7.81 22.71 8.99 23.73L8.99 23.73L8.99 23.73Q10.18 24.76 11.87 25.33L11.87 25.33L11.87 25.33Q13.55 25.91 15.63 25.91L15.63 25.91L15.63 25.91Q17.29 25.91 18.66 25.54L18.66 25.54L18.66 25.54Q20.04 25.17 21.06 24.48L21.06 24.48L21.06 24.48Q22.09 23.79 22.73 22.81L22.73 22.81L22.73 22.81Q23.38 21.84 23.58 20.63L23.58 20.63L15.59 20.63L15.59 16.80L27.76 16.80L27.76 16.82L27.77 16.80L27.77 16.80Q28.14 18.56 28.00 20.22L28.00 20.22L28.00 20.22Q27.86 21.88 27.24 23.36L27.24 23.36L27.24 23.36Q26.62 24.83 25.53 26.06L25.53 26.06L25.53 26.06Q24.45 27.29 22.94 28.18L22.94 28.18L22.94 28.18Q21.43 29.06 19.51 29.55L19.51 29.55L19.51 29.55Q17.59 30.04 15.31 30.04L15.31 30.04L15.31 30.04Q12.11 30.04 9.59 29.11L9.59 29.11L9.59 29.11Q7.06 28.17 5.30 26.54L5.30 26.54L5.30 26.54Q3.54 24.92 2.61 22.73L2.61 22.73L2.61 22.73Q1.68 20.55 1.68 18.08ZM31.68 18.08L31.68 18.08L31.68 18.08Q31.68 15.66 32.59 13.56L32.59 13.56L32.59 13.56Q33.50 11.46 35.24 9.90L35.24 9.90L35.24 9.90Q36.99 8.35 39.53 7.46L39.53 7.46L39.53 7.46Q42.07 6.56 45.35 6.56L45.35 6.56L45.35 6.56Q46.54 6.56 47.73 6.69L47.73 6.69L47.73 6.69Q48.93 6.81 50.09 7.08L50.09 7.08L50.09 7.08Q51.25 7.34 52.36 7.74L52.36 7.74L52.36 7.74Q53.47 8.14 54.46 8.70L54.46 8.70L52.32 12.22L52.32 12.22Q51.72 11.87 50.96 11.58L50.96 11.58L50.96 11.58Q50.20 11.29 49.33 11.10L49.33 11.10L49.33 11.10Q48.46 10.90 47.53 10.80L47.53 10.80L47.53 10.80Q46.60 10.69 45.66 10.69L45.66 10.69L45.66 10.69Q43.49 10.69 41.79 11.24L41.79 11.24L41.79 11.24Q40.09 11.79 38.92 12.78L38.92 12.78L38.92 12.78Q37.75 13.77 37.13 15.15L37.13 15.15L37.13 15.15Q36.52 16.52 36.52 18.16L36.52 18.16L36.52 18.16Q36.52 19.86 37.16 21.28L37.16 21.28L37.16 21.28Q37.81 22.71 38.99 23.73L38.99 23.73L38.99 23.73Q40.18 24.76 41.87 25.33L41.87 25.33L41.87 25.33Q43.55 25.91 45.63 25.91L45.63 25.91L45.63 25.91Q47.29 25.91 48.66 25.54L48.66 25.54L48.66 25.54Q50.04 25.17 51.06 24.48L51.06 24.48L51.06 24.48Q52.09 23.79 52.73 22.81L52.73 22.81L52.73 22.81Q53.38 21.84 53.58 20.63L53.58 20.63L45.59 20.63L45.59 16.80L57.76 16.80L57.76 16.82L57.77 16.80L57.77 16.80Q58.14 18.56 58.00 20.22L58.00 20.22L58.00 20.22Q57.86 21.88 57.24 23.36L57.24 23.36L57.24 23.36Q56.62 24.83 55.53 26.06L55.53 26.06L55.53 26.06Q54.45 27.29 52.94 28.18L52.94 28.18L52.94 28.18Q51.43 29.06 49.51 29.55L49.51 29.55L49.51 29.55Q47.59 30.04 45.31 30.04L45.31 30.04L45.31 30.04Q42.11 30.04 39.59 29.11L39.59 29.11L39.59 29.11Q37.06 28.17 35.30 26.54L35.30 26.54L35.30 26.54Q33.54 24.92 32.61 22.73L32.61 22.73L32.61 22.73Q31.68 20.55 31.68 18.08ZM63.22 29.74L63.22 6.84L67.87 6.84L82.13 14.31L82.13 6.84L86.78 6.84L86.78 29.74L82.13 29.74L82.13 19.23L67.87 11.81L67.87 29.74L63.22 29.74Z" transform="rotate(0 44.22999930381775 18.30000066757202)"></path><defs id="SvgjsDefs1012"></defs></svg></g></svg>